<svg xmlns="http://www.w3.org/2000/svg" aria-hidden="true" style="position:absolute;width:0;height:0;overflow:hidden"><defs><symbol id="icon-arrow" viewBox="0 0 32 32"><path fill="#155e63" d="M2 18h21.688l-8.214 9.708 3.052 2.584L30.62 16 18.526 1.708l-3.052 2.584L23.688 14H2z" style="fill:var(--color1, #155e63)"/></symbol><symbol id="icon-arrow-left" viewBox="0 0 32 32"><path fill="#155e63" d="M26.88 16c0 6.016-4.864 10.88-10.88 10.88S5.12 22.016 5.12 16 9.984 5.12 16 5.12 26.88 9.984 26.88 16M6.4 16c0 5.312 4.288 9.6 9.6 9.6s9.6-4.288 9.6-9.6-4.288-9.6-9.6-9.6-9.6 4.288-9.6 9.6" style="fill:var(--color1, #155e63)"/><path fill="#155e63" d="M17.088 10.688 11.776 16l5.312 5.312-.896.896L9.984 16l6.208-6.208z" style="fill:var(--color1, #155e63)"/><path fill="#155e63" d="M10.88 16.64v-1.28h10.88v1.28z" style="fill:var(--color1, #155e63)"/></symbol><symbol id="icon-arrow-right" viewBox="0 0 32 32"><path fill="#155e63" d="M5.12 16C5.12 9.984 9.984 5.12 16 5.12S26.88 9.984 26.88 16 22.016 26.88 16 26.88 5.12 22.016 5.12 16m20.48 0c0-5.312-4.288-9.6-9.6-9.6S6.4 10.688 6.4 16s4.288 9.6 9.6 9.6 9.6-4.288 9.6-9.6" style="fill:var(--color1, #155e63)"/><path fill="#155e63" d="M14.912 21.312 20.224 16l-5.312-5.312.896-.896L22.016 16l-6.208 6.208z" style="fill:var(--color1, #155e63)"/><path fill="#155e63" d="M21.12 15.36v1.28H10.24v-1.28z" style="fill:var(--color1, #155e63)"/></symbol><symbol id="icon-close" viewBox="0 0 32 32"><path fill="#155e63" d="m8.533 25.333-1.867-1.867 7.467-7.467-7.467-7.467 1.867-1.867L16 14.132l7.467-7.467 1.867 1.867-7.467 7.467 7.467 7.467-1.867 1.867L16 17.866z" style="fill:var(--color1, #155e63)"/></symbol><symbol id="icon-menu" viewBox="0 0 32 32"><path fill="#155e63" d="M4 24v-2h24v2zm0-7v-2h24v2zm0-7V8h24v2z" style="fill:var(--color1, #155e63)"/></symbol></defs></svg>